# xmcd
#
# Track frame offsets:
# 150
# 12523
# 29351
# 41015
# 55885
# 67063
#
# Disc length: 1056 seconds
#
#
# Revision: 0
# Processed by: cddbd v1.5.1PL0 Copyright (c) Steve Scherf et al.
# Submitted via: FreeRIP 2.91 
#
DISCID=50041e06
DTITLE=Rugido Norteño - Demo
DYEAR=2004
DGENRE=Norteño
TTITLE0=regresa chiquitita
TTITLE1=te vi bnota
TTITLE2=la cumbia del wuitre
TTITLE3=corrido de angel monarrez
TTITLE4=volver es mas posible
TTITLE5=el corrido del pelon
EXTD=Ripped by gErarD
EXTT0=
EXTT1=
EXTT2=
EXTT3=
EXTT4=
EXTT5=
PLAYORDER=
